<?xml version="1.0" encoding="UTF-8" standalone="no"?>
<svg xmlns="http://www.w3.org/2000/svg" width="128mm" height="128mm" viewBox="0 0 128 128"><defs><filter style="color-interpolation-filters:sRGB;" id="f1" x="-0.11017605" width="1.2203521" y="-0.14713167" height="1.2942633"><feFlood flood-opacity="1" flood-color="rgb(0,255,206)" result="flood"/><feComposite in="flood" in2="SourceGraphic" operator="in" result="composite1"/><feGaussianBlur in="composite1" stdDeviation="20.005996" result="blur"/><feOffset dx="0" dy="0" result="offset"/><feComposite in="offset" in2="SourceGraphic" operator="out" result="composite2"/></filter></defs><g transform="translate(0,-169)" style="display:inline"><g style="display:inline;fill:#ff8600;fill-opacity:1;stroke:#000000;stroke-width:0;stroke-miterlimit:4;stroke-dasharray:none;stroke-opacity:0;paint-order:markers stroke fill" transform="matrix(0.90965799,0,0,0.90965799,-52.436237,20.199587)"><path style="display:inline;opacity:1;fill:#ff8600;fill-opacity:1;fill-rule:nonzero;stroke:#000000;stroke-width:0;stroke-linecap:butt;stroke-linejoin:round;stroke-miterlimit:4;stroke-dasharray:none;stroke-dashoffset:0;stroke-opacity:0;paint-order:markers stroke fill;filter:url(#f1)" d="m 47.626953,82.259766 c -8.123498,-0.09954 -14.852734,1.192865 -19.152344,4.867187 -4.083515,3.850469 -5.502991,17.738837 -3.738281,20.093747 8.516281,9.98325 7.433497,9.07311 6.039063,17.44922 7.801984,5.78684 8.262184,14.34319 7.871093,16.5586 -0.378145,2.31772 0.494216,4.72411 1.8125,5.61328 4.859963,2.97244 5.612988,9.06883 5.205078,18.02343 3.046712,0.10046 7.678316,8.55121 9.197266,10.83789 -1.000233,12.79646 1.968993,13.40651 8.669922,17.35547 2.040378,1.22665 2.721182,2.44155 2.390625,5.05079 -1.43732,12.46219 6.797662,17.85053 14.386719,25.49414 0.04092,9.6619 6.277002,12.02915 9.46289,14.63476 5.586902,4.44465 1.262835,1.44082 8.585938,7.17969 10.038768,6.48873 22.711788,-1.88884 23.152348,0.58203 0.52984,2.47831 -5.88252,-2.23224 -16.625,17.27734 -0.88391,1.5831 0.0572,3.58338 0.6914,5.40821 2.69277,7.2952 1.34388,16.48434 -2.71875,24.91601 5.25101,8.53161 7.09327,17.63057 6.85156,26.35156 14.49592,13.6404 13.74632,20.8577 13.22071,22.97461 -0.29326,1.14913 0.39086,2.67851 3.01758,1.9336 10.94617,-3.35755 23.14281,5.33775 13.01757,34.12305 -8.75666,22.76738 -11.07275,27.60455 -9.79101,28.71679 2.36813,1.73707 5.96251,0.50484 8.57617,-0.14648 3.24612,-0.70337 8.45647,-14.79915 11.61328,-26.2168 3.66482,-11.10909 11.70626,-15.87821 20.3711,-16.18359 10.99782,-0.49947 15.16427,-2.38334 20.38085,-3.97657 2.63895,-0.62468 8.22405,-2.09937 14.42383,-1.3457 4.99102,0.5873 8.75148,-2.70488 11.09766,-6.37109 14.2704,-22.76323 14.41688,-24.22435 10.77148,-50.95313 -1.67769,-13.50221 2.03175,-30.4872 4.81836,-42.29297 0.29122,-1.29728 2.28577,-1.0773 2.16406,0.29297 V 196.2207 C 195.60427,130.92286 117.41179,95.677377 83.666016,87.453125 70.820143,84.818563 58.07145,82.387741 47.626953,82.259766 Z M 233.39062,196.2207 l 0.002,64.28711 c -1.38663,12.26045 -5.91888,56.7438 8.49804,56.59375 14.41694,0.15005 9.88468,-44.3333 8.49805,-56.59375 V 196.2207 c 4.21973,-7.17826 1.7486,-10.44269 -0.59765,-12.1914 -1.57524,-1.10268 -0.75999,-2.35533 0.0664,-3.80274 13.12974,-25.67558 39.93062,-68.12533 49.77735,-74.35547 5.84144,-2.94931 0.70014,-11.523914 -5.24415,-2.6875 -18.38973,25.68008 -32.3823,48.7474 -46.48632,75.32032 -3.12114,4.88659 -3.04879,1.40415 -6.01368,1.40234 -2.96487,0.002 -2.89449,3.48425 -6.01562,-1.40234 -14.10403,-26.57292 -28.09662,-49.64024 -46.48633,-75.32032 -1.85759,-2.76138 -3.63733,-3.822867 -5.02734,-3.886715 -3.05803,-0.140465 -4.23277,4.546565 -0.2168,6.574215 9.84677,6.23014 36.64761,48.67989 49.77735,74.35547 0.82638,1.44741 1.64163,2.70006 0.0664,3.80274 -2.34625,1.74871 -4.81741,5.01314 -0.59766,12.1914 z m 16.99805,64.28711 c -0.1217,-1.37027 1.87285,-1.59025 2.16406,-0.29297 2.78661,11.80577 6.49606,28.79076 4.81836,42.29297 -3.64539,26.72878 -3.49891,28.1899 10.77149,50.95313 2.34618,3.66621 6.10667,6.95839 11.09765,6.37109 6.19983,-0.75367 11.78489,0.72102 14.42383,1.3457 5.21658,1.59323 9.38304,3.4771 20.38086,3.97657 8.66483,0.30538 16.70624,5.0745 20.3711,16.18359 3.15681,11.41765 8.36715,25.51343 11.61328,26.2168 2.61365,0.65132 6.20803,1.88355 8.57617,0.14648 1.28171,-1.11224 -1.03438,-5.94941 -9.79102,-28.71679 -10.12528,-28.7853 2.07143,-37.4806 13.01758,-34.12305 2.62674,0.74491 3.31083,-0.78447 3.01758,-1.9336 -0.52562,-2.11691 -1.27518,-9.33421 13.2207,-22.97461 -0.24189,-8.72099 1.60055,-17.81995 6.85157,-26.35156 -4.06266,-8.43167 -5.41152,-17.62081 -2.71876,-24.91601 0.63417,-1.82483 1.57533,-3.82511 0.69141,-5.40821 -10.74247,-19.50958 -17.15485,-14.79903 -16.625,-17.27734 0.44054,-2.47087 13.11354,5.9067 23.15235,-0.58203 7.32309,-5.73887 2.99903,-2.73504 8.58593,-7.17969 3.18588,-2.60561 9.42196,-4.97286 9.46289,-14.63476 7.58907,-7.64361 15.82404,-13.03195 14.38672,-25.49414 -0.33071,-2.60924 0.35025,-3.82414 2.39063,-5.05079 6.70091,-3.94896 9.67209,-4.55901 8.67187,-17.35547 1.51896,-2.28668 6.15059,-10.73743 9.19727,-10.83789 -0.40789,-8.9546 0.34295,-15.05099 5.20312,-18.02343 1.3183,-0.88917 2.19064,-3.29556 1.8125,-5.61328 -0.39107,-2.21541 0.0692,-10.77176 7.8711,-16.5586 -1.39446,-8.37611 -2.47724,-7.46597 6.03906,-17.44922 1.7647,-2.35491 0.34722,-16.243278 -3.73633,-20.093747 -9.82768,-8.39845 -32.35429,-4.357494 -55.19141,0.326172 C 366.36946,95.677377 288.17698,130.92286 250.39062,196.2207 Z" transform="matrix(0.26458333,0,0,0.26458333,63.999999,169)"/><path transform="matrix(0.26458333,0,0,0.26458333,63.999999,169)" d="m 47.626953,82.259766 c -8.123498,-0.09954 -14.852734,1.192865 -19.152344,4.867187 -4.083515,3.850469 -5.502991,17.738837 -3.738281,20.093747 8.516281,9.98325 7.433497,9.07311 6.039063,17.44922 7.801984,5.78684 8.262184,14.34319 7.871093,16.5586 -0.378145,2.31772 0.494216,4.72411 1.8125,5.61328 4.859963,2.97244 5.612988,9.06883 5.205078,18.02343 3.046712,0.10046 7.678316,8.55121 9.197266,10.83789 -1.000233,12.79646 1.968993,13.40651 8.669922,17.35547 2.040378,1.22665 2.721182,2.44155 2.390625,5.05079 -1.43732,12.46219 6.797662,17.85053 14.386719,25.49414 0.04092,9.6619 6.277002,12.02915 9.46289,14.63476 5.586902,4.44465 1.262835,1.44082 8.585938,7.17969 10.038768,6.48873 22.711788,-1.88884 23.152348,0.58203 0.52984,2.47831 -5.88252,-2.23224 -16.625,17.27734 -0.88391,1.5831 0.0572,3.58338 0.6914,5.40821 2.69277,7.2952 1.34388,16.48434 -2.71875,24.91601 5.25101,8.53161 7.09327,17.63057 6.85156,26.35156 14.49592,13.6404 13.74632,20.8577 13.22071,22.97461 -0.29326,1.14913 0.39086,2.67851 3.01758,1.9336 10.94617,-3.35755 23.14281,5.33775 13.01757,34.12305 -8.75666,22.76738 -11.07275,27.60455 -9.79101,28.71679 2.36813,1.73707 5.96251,0.50484 8.57617,-0.14648 3.24612,-0.70337 8.45647,-14.79915 11.61328,-26.2168 3.66482,-11.10909 11.70626,-15.87821 20.3711,-16.18359 10.99782,-0.49947 15.16427,-2.38334 20.38085,-3.97657 2.63895,-0.62468 8.22405,-2.09937 14.42383,-1.3457 4.99102,0.5873 8.75148,-2.70488 11.09766,-6.37109 14.2704,-22.76323 14.41688,-24.22435 10.77148,-50.95313 -1.67769,-13.50221 2.03175,-30.4872 4.81836,-42.29297 0.29122,-1.29728 2.28577,-1.0773 2.16406,0.29297 V 196.2207 C 195.60427,130.92286 117.41179,95.677377 83.666016,87.453125 70.820143,84.818563 58.07145,82.387741 47.626953,82.259766 Z M 233.39062,196.2207 l 0.002,64.28711 c -1.38663,12.26045 -5.91888,56.7438 8.49804,56.59375 14.41694,0.15005 9.88468,-44.3333 8.49805,-56.59375 V 196.2207 c 4.21973,-7.17826 1.7486,-10.44269 -0.59765,-12.1914 -1.57524,-1.10268 -0.75999,-2.35533 0.0664,-3.80274 13.12974,-25.67558 39.93062,-68.12533 49.77735,-74.35547 5.84144,-2.94931 0.70014,-11.523914 -5.24415,-2.6875 -18.38973,25.68008 -32.3823,48.7474 -46.48632,75.32032 -3.12114,4.88659 -3.04879,1.40415 -6.01368,1.40234 -2.96487,0.002 -2.89449,3.48425 -6.01562,-1.40234 -14.10403,-26.57292 -28.09662,-49.64024 -46.48633,-75.32032 -1.85759,-2.76138 -3.63733,-3.822867 -5.02734,-3.886715 -3.05803,-0.140465 -4.23277,4.546565 -0.2168,6.574215 9.84677,6.23014 36.64761,48.67989 49.77735,74.35547 0.82638,1.44741 1.64163,2.70006 0.0664,3.80274 -2.34625,1.74871 -4.81741,5.01314 -0.59766,12.1914 z m 16.99805,64.28711 c -0.1217,-1.37027 1.87285,-1.59025 2.16406,-0.29297 2.78661,11.80577 6.49606,28.79076 4.81836,42.29297 -3.64539,26.72878 -3.49891,28.1899 10.77149,50.95313 2.34618,3.66621 6.10667,6.95839 11.09765,6.37109 6.19983,-0.75367 11.78489,0.72102 14.42383,1.3457 5.21658,1.59323 9.38304,3.4771 20.38086,3.97657 8.66483,0.30538 16.70624,5.0745 20.3711,16.18359 3.15681,11.41765 8.36715,25.51343 11.61328,26.2168 2.61365,0.65132 6.20803,1.88355 8.57617,0.14648 1.28171,-1.11224 -1.03438,-5.94941 -9.79102,-28.71679 -10.12528,-28.7853 2.07143,-37.4806 13.01758,-34.12305 2.62674,0.74491 3.31083,-0.78447 3.01758,-1.9336 -0.52562,-2.11691 -1.27518,-9.33421 13.2207,-22.97461 -0.24189,-8.72099 1.60055,-17.81995 6.85157,-26.35156 -4.06266,-8.43167 -5.41152,-17.62081 -2.71876,-24.91601 0.63417,-1.82483 1.57533,-3.82511 0.69141,-5.40821 -10.74247,-19.50958 -17.15485,-14.79903 -16.625,-17.27734 0.44054,-2.47087 13.11354,5.9067 23.15235,-0.58203 7.32309,-5.73887 2.99903,-2.73504 8.58593,-7.17969 3.18588,-2.60561 9.42196,-4.97286 9.46289,-14.63476 7.58907,-7.64361 15.82404,-13.03195 14.38672,-25.49414 -0.33071,-2.60924 0.35025,-3.82414 2.39063,-5.05079 6.70091,-3.94896 9.67209,-4.55901 8.67187,-17.35547 1.51896,-2.28668 6.15059,-10.73743 9.19727,-10.83789 -0.40789,-8.9546 0.34295,-15.05099 5.20312,-18.02343 1.3183,-0.88917 2.19064,-3.29556 1.8125,-5.61328 -0.39107,-2.21541 0.0692,-10.77176 7.8711,-16.5586 -1.39446,-8.37611 -2.47724,-7.46597 6.03906,-17.44922 1.7647,-2.35491 0.34722,-16.243278 -3.73633,-20.093747 -9.82768,-8.39845 -32.35429,-4.357494 -55.19141,0.326172 C 366.36946,95.677377 288.17698,130.92286 250.39062,196.2207 Z" style="display:inline;opacity:1;fill:#ff8600;fill-opacity:1;fill-rule:nonzero;stroke:#000000;stroke-width:0;stroke-linecap:butt;stroke-linejoin:round;stroke-miterlimit:4;stroke-dasharray:none;stroke-dashoffset:0;stroke-opacity:0;paint-order:markers stroke fill;filter:url(#f1)"/><path style="display:inline;opacity:1;fill:#ff8600;fill-opacity:1;fill-rule:nonzero;stroke:#000000;stroke-width:0;stroke-linecap:butt;stroke-linejoin:round;stroke-miterlimit:4;stroke-dasharray:none;stroke-dashoffset:0;stroke-opacity:0;paint-order:markers stroke fill;filter:url(#f1)" d="m 47.626953,82.259766 c -8.123498,-0.09954 -14.852734,1.192865 -19.152344,4.867187 -4.083515,3.850469 -5.502991,17.738837 -3.738281,20.093747 8.516281,9.98325 7.433497,9.07311 6.039063,17.44922 7.801984,5.78684 8.262184,14.34319 7.871093,16.5586 -0.378145,2.31772 0.494216,4.72411 1.8125,5.61328 4.859963,2.97244 5.612988,9.06883 5.205078,18.02343 3.046712,0.10046 7.678316,8.55121 9.197266,10.83789 -1.000233,12.79646 1.968993,13.40651 8.669922,17.35547 2.040378,1.22665 2.721182,2.44155 2.390625,5.05079 -1.43732,12.46219 6.797662,17.85053 14.386719,25.49414 0.04092,9.6619 6.277002,12.02915 9.46289,14.63476 5.586902,4.44465 1.262835,1.44082 8.585938,7.17969 10.038768,6.48873 22.711788,-1.88884 23.152348,0.58203 0.52984,2.47831 -5.88252,-2.23224 -16.625,17.27734 -0.88391,1.5831 0.0572,3.58338 0.6914,5.40821 2.69277,7.2952 1.34388,16.48434 -2.71875,24.91601 5.25101,8.53161 7.09327,17.63057 6.85156,26.35156 14.49592,13.6404 13.74632,20.8577 13.22071,22.97461 -0.29326,1.14913 0.39086,2.67851 3.01758,1.9336 10.94617,-3.35755 23.14281,5.33775 13.01757,34.12305 -8.75666,22.76738 -11.07275,27.60455 -9.79101,28.71679 2.36813,1.73707 5.96251,0.50484 8.57617,-0.14648 3.24612,-0.70337 8.45647,-14.79915 11.61328,-26.2168 3.66482,-11.10909 11.70626,-15.87821 20.3711,-16.18359 10.99782,-0.49947 15.16427,-2.38334 20.38085,-3.97657 2.63895,-0.62468 8.22405,-2.09937 14.42383,-1.3457 4.99102,0.5873 8.75148,-2.70488 11.09766,-6.37109 14.2704,-22.76323 14.41688,-24.22435 10.77148,-50.95313 -1.67769,-13.50221 2.03175,-30.4872 4.81836,-42.29297 0.29122,-1.29728 2.28577,-1.0773 2.16406,0.29297 V 196.2207 C 195.60427,130.92286 117.41179,95.677377 83.666016,87.453125 70.820143,84.818563 58.07145,82.387741 47.626953,82.259766 Z M 233.39062,196.2207 l 0.002,64.28711 c -1.38663,12.26045 -5.91888,56.7438 8.49804,56.59375 14.41694,0.15005 9.88468,-44.3333 8.49805,-56.59375 V 196.2207 c 4.21973,-7.17826 1.7486,-10.44269 -0.59765,-12.1914 -1.57524,-1.10268 -0.75999,-2.35533 0.0664,-3.80274 13.12974,-25.67558 39.93062,-68.12533 49.77735,-74.35547 5.84144,-2.94931 0.70014,-11.523914 -5.24415,-2.6875 -18.38973,25.68008 -32.3823,48.7474 -46.48632,75.32032 -3.12114,4.88659 -3.04879,1.40415 -6.01368,1.40234 -2.96487,0.002 -2.89449,3.48425 -6.01562,-1.40234 -14.10403,-26.57292 -28.09662,-49.64024 -46.48633,-75.32032 -1.85759,-2.76138 -3.63733,-3.822867 -5.02734,-3.886715 -3.05803,-0.140465 -4.23277,4.546565 -0.2168,6.574215 9.84677,6.23014 36.64761,48.67989 49.77735,74.35547 0.82638,1.44741 1.64163,2.70006 0.0664,3.80274 -2.34625,1.74871 -4.81741,5.01314 -0.59766,12.1914 z m 16.99805,64.28711 c -0.1217,-1.37027 1.87285,-1.59025 2.16406,-0.29297 2.78661,11.80577 6.49606,28.79076 4.81836,42.29297 -3.64539,26.72878 -3.49891,28.1899 10.77149,50.95313 2.34618,3.66621 6.10667,6.95839 11.09765,6.37109 6.19983,-0.75367 11.78489,0.72102 14.42383,1.3457 5.21658,1.59323 9.38304,3.4771 20.38086,3.97657 8.66483,0.30538 16.70624,5.0745 20.3711,16.18359 3.15681,11.41765 8.36715,25.51343 11.61328,26.2168 2.61365,0.65132 6.20803,1.88355 8.57617,0.14648 1.28171,-1.11224 -1.03438,-5.94941 -9.79102,-28.71679 -10.12528,-28.7853 2.07143,-37.4806 13.01758,-34.12305 2.62674,0.74491 3.31083,-0.78447 3.01758,-1.9336 -0.52562,-2.11691 -1.27518,-9.33421 13.2207,-22.97461 -0.24189,-8.72099 1.60055,-17.81995 6.85157,-26.35156 -4.06266,-8.43167 -5.41152,-17.62081 -2.71876,-24.91601 0.63417,-1.82483 1.57533,-3.82511 0.69141,-5.40821 -10.74247,-19.50958 -17.15485,-14.79903 -16.625,-17.27734 0.44054,-2.47087 13.11354,5.9067 23.15235,-0.58203 7.32309,-5.73887 2.99903,-2.73504 8.58593,-7.17969 3.18588,-2.60561 9.42196,-4.97286 9.46289,-14.63476 7.58907,-7.64361 15.82404,-13.03195 14.38672,-25.49414 -0.33071,-2.60924 0.35025,-3.82414 2.39063,-5.05079 6.70091,-3.94896 9.67209,-4.55901 8.67187,-17.35547 1.51896,-2.28668 6.15059,-10.73743 9.19727,-10.83789 -0.40789,-8.9546 0.34295,-15.05099 5.20312,-18.02343 1.3183,-0.88917 2.19064,-3.29556 1.8125,-5.61328 -0.39107,-2.21541 0.0692,-10.77176 7.8711,-16.5586 -1.39446,-8.37611 -2.47724,-7.46597 6.03906,-17.44922 1.7647,-2.35491 0.34722,-16.243278 -3.73633,-20.093747 -9.82768,-8.39845 -32.35429,-4.357494 -55.19141,0.326172 C 366.36946,95.677377 288.17698,130.92286 250.39062,196.2207 Z" transform="matrix(0.26458333,0,0,0.26458333,63.999999,169)"/></g></g></svg>
