<svg width="128mm" height="128mm" version="1.1" viewBox="0 0 128 128" xmlns="http://www.w3.org/2000/svg"><defs><filter id="a" x="-.11018" y="-.14713" width="1.2204" height="1.2943" color-interpolation-filters="sRGB"><feFlood flood-color="rgb(0,255,206)" result="flood"/><feComposite in="flood" in2="SourceGraphic" operator="in" result="composite1"/><feGaussianBlur in="composite1" result="blur" stdDeviation="20.005996"/><feOffset dx="0" dy="0" result="offset"/><feComposite in="offset" in2="SourceGraphic" operator="out" result="composite2"/></filter></defs><g transform="translate(0,-169)"><g transform="matrix(.90966 0 0 .90966 -52.436 20.2)" fill="#ff8600" stroke-opacity="0" style="paint-order:markers stroke fill"><path transform="matrix(.26458 0 0 .26458 64 169)" d="m47.627 82.26c-8.1235-0.09954-14.853 1.1929-19.152 4.8672-4.0835 3.8505-5.503 17.739-3.7383 20.094 8.5163 9.9832 7.4335 9.0731 6.0391 17.449 7.802 5.7868 8.2622 14.343 7.8711 16.559-0.37814 2.3177 0.49422 4.7241 1.8125 5.6133 4.86 2.9724 5.613 9.0688 5.2051 18.023 3.0467 0.10046 7.6783 8.5512 9.1973 10.838-1.0002 12.796 1.969 13.407 8.6699 17.355 2.0404 1.2266 2.7212 2.4416 2.3906 5.0508-1.4373 12.462 6.7977 17.851 14.387 25.494 0.04092 9.6619 6.277 12.029 9.4629 14.635 5.5869 4.4446 1.2628 1.4408 8.5859 7.1797 10.039 6.4887 22.712-1.8888 23.152 0.58203 0.52984 2.4783-5.8825-2.2322-16.625 17.277-0.88391 1.5831 0.0572 3.5834 0.6914 5.4082 2.6928 7.2952 1.3439 16.484-2.7188 24.916 5.251 8.5316 7.0933 17.631 6.8516 26.352 14.496 13.64 13.746 20.858 13.221 22.975-0.29326 1.1491 0.39086 2.6785 3.0176 1.9336 10.946-3.3576 23.143 5.3378 13.018 34.123-8.7567 22.767-11.073 27.605-9.791 28.717 2.3681 1.7371 5.9625 0.50484 8.5762-0.14648 3.2461-0.70337 8.4565-14.799 11.613-26.217 3.6648-11.109 11.706-15.878 20.371-16.184 10.998-0.49947 15.164-2.3833 20.381-3.9766 2.639-0.62468 8.224-2.0994 14.424-1.3457 4.991 0.5873 8.7515-2.7049 11.098-6.3711 14.27-22.763 14.417-24.224 10.771-50.953-1.6777-13.502 2.0318-30.487 4.8184-42.293 0.29122-1.2973 2.2858-1.0773 2.1641 0.29297v-64.287c-37.786-65.298-115.98-100.54-149.72-108.77-12.846-2.6346-25.595-5.0654-36.039-5.1934zm185.76 113.96 2e-3 64.287c-1.3866 12.26-5.9189 56.744 8.498 56.594 14.417 0.15005 9.8847-44.333 8.498-56.594v-64.287c4.2197-7.1783 1.7486-10.443-0.59765-12.191-1.5752-1.1027-0.75999-2.3553 0.0664-3.8027 13.13-25.676 39.931-68.125 49.777-74.355 5.8414-2.9493 0.70014-11.524-5.2442-2.6875-18.39 25.68-32.382 48.747-46.486 75.32-3.1211 4.8866-3.0488 1.4042-6.0137 1.4023-2.9649 2e-3 -2.8945 3.4842-6.0156-1.4023-14.104-26.573-28.097-49.64-46.486-75.32-1.8576-2.7614-3.6373-3.8229-5.0273-3.8867-3.058-0.14046-4.2328 4.5466-0.2168 6.5742 9.8468 6.2301 36.648 48.68 49.777 74.355 0.82638 1.4474 1.6416 2.7001 0.0664 3.8027-2.3462 1.7487-4.8174 5.0131-0.59766 12.191zm16.998 64.287c-0.1217-1.3703 1.8728-1.5902 2.1641-0.29297 2.7866 11.806 6.4961 28.791 4.8184 42.293-3.6454 26.729-3.4989 28.19 10.771 50.953 2.3462 3.6662 6.1067 6.9584 11.098 6.3711 6.1998-0.75367 11.785 0.72102 14.424 1.3457 5.2166 1.5932 9.383 3.4771 20.381 3.9766 8.6648 0.30538 16.706 5.0745 20.371 16.184 3.1568 11.418 8.3672 25.513 11.613 26.217 2.6136 0.65132 6.208 1.8836 8.5762 0.14648 1.2817-1.1122-1.0344-5.9494-9.791-28.717-10.125-28.785 2.0714-37.481 13.018-34.123 2.6267 0.74491 3.3108-0.78447 3.0176-1.9336-0.52562-2.1169-1.2752-9.3342 13.221-22.975-0.24189-8.721 1.6006-17.82 6.8516-26.352-4.0627-8.4317-5.4115-17.621-2.7188-24.916 0.63417-1.8248 1.5753-3.8251 0.69141-5.4082-10.742-19.51-17.155-14.799-16.625-17.277 0.44054-2.4709 13.114 5.9067 23.152-0.58203 7.3231-5.7389 2.999-2.735 8.5859-7.1797 3.1859-2.6056 9.422-4.9729 9.4629-14.635 7.5891-7.6436 15.824-13.032 14.387-25.494-0.33071-2.6092 0.35025-3.8241 2.3906-5.0508 6.7009-3.949 9.6721-4.559 8.6719-17.355 1.519-2.2867 6.1506-10.737 9.1973-10.838-0.40789-8.9546 0.34295-15.051 5.2031-18.023 1.3183-0.88917 2.1906-3.2956 1.8125-5.6133-0.39107-2.2154 0.0692-10.772 7.8711-16.559-1.3945-8.3761-2.4772-7.466 6.0391-17.449 1.7647-2.3549 0.34722-16.243-3.7363-20.094-9.8277-8.3984-32.354-4.3575-55.191 0.32617-33.746 8.2243-111.94 43.47-149.72 108.77z" filter="url(#a)" style="paint-order:markers stroke fill"/><path transform="matrix(.26458 0 0 .26458 64 169)" d="m47.627 82.26c-8.1235-0.09954-14.853 1.1929-19.152 4.8672-4.0835 3.8505-5.503 17.739-3.7383 20.094 8.5163 9.9832 7.4335 9.0731 6.0391 17.449 7.802 5.7868 8.2622 14.343 7.8711 16.559-0.37814 2.3177 0.49422 4.7241 1.8125 5.6133 4.86 2.9724 5.613 9.0688 5.2051 18.023 3.0467 0.10046 7.6783 8.5512 9.1973 10.838-1.0002 12.796 1.969 13.407 8.6699 17.355 2.0404 1.2266 2.7212 2.4416 2.3906 5.0508-1.4373 12.462 6.7977 17.851 14.387 25.494 0.04092 9.6619 6.277 12.029 9.4629 14.635 5.5869 4.4446 1.2628 1.4408 8.5859 7.1797 10.039 6.4887 22.712-1.8888 23.152 0.58203 0.52984 2.4783-5.8825-2.2322-16.625 17.277-0.88391 1.5831 0.0572 3.5834 0.6914 5.4082 2.6928 7.2952 1.3439 16.484-2.7188 24.916 5.251 8.5316 7.0933 17.631 6.8516 26.352 14.496 13.64 13.746 20.858 13.221 22.975-0.29326 1.1491 0.39086 2.6785 3.0176 1.9336 10.946-3.3576 23.143 5.3378 13.018 34.123-8.7567 22.767-11.073 27.605-9.791 28.717 2.3681 1.7371 5.9625 0.50484 8.5762-0.14648 3.2461-0.70337 8.4565-14.799 11.613-26.217 3.6648-11.109 11.706-15.878 20.371-16.184 10.998-0.49947 15.164-2.3833 20.381-3.9766 2.639-0.62468 8.224-2.0994 14.424-1.3457 4.991 0.5873 8.7515-2.7049 11.098-6.3711 14.27-22.763 14.417-24.224 10.771-50.953-1.6777-13.502 2.0318-30.487 4.8184-42.293 0.29122-1.2973 2.2858-1.0773 2.1641 0.29297v-64.287c-37.786-65.298-115.98-100.54-149.72-108.77-12.846-2.6346-25.595-5.0654-36.039-5.1934zm185.76 113.96 2e-3 64.287c-1.3866 12.26-5.9189 56.744 8.498 56.594 14.417 0.15005 9.8847-44.333 8.498-56.594v-64.287c4.2197-7.1783 1.7486-10.443-0.59765-12.191-1.5752-1.1027-0.75999-2.3553 0.0664-3.8027 13.13-25.676 39.931-68.125 49.777-74.355 5.8414-2.9493 0.70014-11.524-5.2442-2.6875-18.39 25.68-32.382 48.747-46.486 75.32-3.1211 4.8866-3.0488 1.4042-6.0137 1.4023-2.9649 2e-3 -2.8945 3.4842-6.0156-1.4023-14.104-26.573-28.097-49.64-46.486-75.32-1.8576-2.7614-3.6373-3.8229-5.0273-3.8867-3.058-0.14046-4.2328 4.5466-0.2168 6.5742 9.8468 6.2301 36.648 48.68 49.777 74.355 0.82638 1.4474 1.6416 2.7001 0.0664 3.8027-2.3462 1.7487-4.8174 5.0131-0.59766 12.191zm16.998 64.287c-0.1217-1.3703 1.8728-1.5902 2.1641-0.29297 2.7866 11.806 6.4961 28.791 4.8184 42.293-3.6454 26.729-3.4989 28.19 10.771 50.953 2.3462 3.6662 6.1067 6.9584 11.098 6.3711 6.1998-0.75367 11.785 0.72102 14.424 1.3457 5.2166 1.5932 9.383 3.4771 20.381 3.9766 8.6648 0.30538 16.706 5.0745 20.371 16.184 3.1568 11.418 8.3672 25.513 11.613 26.217 2.6136 0.65132 6.208 1.8836 8.5762 0.14648 1.2817-1.1122-1.0344-5.9494-9.791-28.717-10.125-28.785 2.0714-37.481 13.018-34.123 2.6267 0.74491 3.3108-0.78447 3.0176-1.9336-0.52562-2.1169-1.2752-9.3342 13.221-22.975-0.24189-8.721 1.6006-17.82 6.8516-26.352-4.0627-8.4317-5.4115-17.621-2.7188-24.916 0.63417-1.8248 1.5753-3.8251 0.69141-5.4082-10.742-19.51-17.155-14.799-16.625-17.277 0.44054-2.4709 13.114 5.9067 23.152-0.58203 7.3231-5.7389 2.999-2.735 8.5859-7.1797 3.1859-2.6056 9.422-4.9729 9.4629-14.635 7.5891-7.6436 15.824-13.032 14.387-25.494-0.33071-2.6092 0.35025-3.8241 2.3906-5.0508 6.7009-3.949 9.6721-4.559 8.6719-17.355 1.519-2.2867 6.1506-10.737 9.1973-10.838-0.40789-8.9546 0.34295-15.051 5.2031-18.023 1.3183-0.88917 2.1906-3.2956 1.8125-5.6133-0.39107-2.2154 0.0692-10.772 7.8711-16.559-1.3945-8.3761-2.4772-7.466 6.0391-17.449 1.7647-2.3549 0.34722-16.243-3.7363-20.094-9.8277-8.3984-32.354-4.3575-55.191 0.32617-33.746 8.2243-111.94 43.47-149.72 108.77z" filter="url(#a)" style="paint-order:markers stroke fill"/><path transform="matrix(.26458 0 0 .26458 64 169)" d="m47.627 82.26c-8.1235-0.09954-14.853 1.1929-19.152 4.8672-4.0835 3.8505-5.503 17.739-3.7383 20.094 8.5163 9.9832 7.4335 9.0731 6.0391 17.449 7.802 5.7868 8.2622 14.343 7.8711 16.559-0.37814 2.3177 0.49422 4.7241 1.8125 5.6133 4.86 2.9724 5.613 9.0688 5.2051 18.023 3.0467 0.10046 7.6783 8.5512 9.1973 10.838-1.0002 12.796 1.969 13.407 8.6699 17.355 2.0404 1.2266 2.7212 2.4416 2.3906 5.0508-1.4373 12.462 6.7977 17.851 14.387 25.494 0.04092 9.6619 6.277 12.029 9.4629 14.635 5.5869 4.4446 1.2628 1.4408 8.5859 7.1797 10.039 6.4887 22.712-1.8888 23.152 0.58203 0.52984 2.4783-5.8825-2.2322-16.625 17.277-0.88391 1.5831 0.0572 3.5834 0.6914 5.4082 2.6928 7.2952 1.3439 16.484-2.7188 24.916 5.251 8.5316 7.0933 17.631 6.8516 26.352 14.496 13.64 13.746 20.858 13.221 22.975-0.29326 1.1491 0.39086 2.6785 3.0176 1.9336 10.946-3.3576 23.143 5.3378 13.018 34.123-8.7567 22.767-11.073 27.605-9.791 28.717 2.3681 1.7371 5.9625 0.50484 8.5762-0.14648 3.2461-0.70337 8.4565-14.799 11.613-26.217 3.6648-11.109 11.706-15.878 20.371-16.184 10.998-0.49947 15.164-2.3833 20.381-3.9766 2.639-0.62468 8.224-2.0994 14.424-1.3457 4.991 0.5873 8.7515-2.7049 11.098-6.3711 14.27-22.763 14.417-24.224 10.771-50.953-1.6777-13.502 2.0318-30.487 4.8184-42.293 0.29122-1.2973 2.2858-1.0773 2.1641 0.29297v-64.287c-37.786-65.298-115.98-100.54-149.72-108.77-12.846-2.6346-25.595-5.0654-36.039-5.1934zm185.76 113.96 2e-3 64.287c-1.3866 12.26-5.9189 56.744 8.498 56.594 14.417 0.15005 9.8847-44.333 8.498-56.594v-64.287c4.2197-7.1783 1.7486-10.443-0.59765-12.191-1.5752-1.1027-0.75999-2.3553 0.0664-3.8027 13.13-25.676 39.931-68.125 49.777-74.355 5.8414-2.9493 0.70014-11.524-5.2442-2.6875-18.39 25.68-32.382 48.747-46.486 75.32-3.1211 4.8866-3.0488 1.4042-6.0137 1.4023-2.9649 2e-3 -2.8945 3.4842-6.0156-1.4023-14.104-26.573-28.097-49.64-46.486-75.32-1.8576-2.7614-3.6373-3.8229-5.0273-3.8867-3.058-0.14046-4.2328 4.5466-0.2168 6.5742 9.8468 6.2301 36.648 48.68 49.777 74.355 0.82638 1.4474 1.6416 2.7001 0.0664 3.8027-2.3462 1.7487-4.8174 5.0131-0.59766 12.191zm16.998 64.287c-0.1217-1.3703 1.8728-1.5902 2.1641-0.29297 2.7866 11.806 6.4961 28.791 4.8184 42.293-3.6454 26.729-3.4989 28.19 10.771 50.953 2.3462 3.6662 6.1067 6.9584 11.098 6.3711 6.1998-0.75367 11.785 0.72102 14.424 1.3457 5.2166 1.5932 9.383 3.4771 20.381 3.9766 8.6648 0.30538 16.706 5.0745 20.371 16.184 3.1568 11.418 8.3672 25.513 11.613 26.217 2.6136 0.65132 6.208 1.8836 8.5762 0.14648 1.2817-1.1122-1.0344-5.9494-9.791-28.717-10.125-28.785 2.0714-37.481 13.018-34.123 2.6267 0.74491 3.3108-0.78447 3.0176-1.9336-0.52562-2.1169-1.2752-9.3342 13.221-22.975-0.24189-8.721 1.6006-17.82 6.8516-26.352-4.0627-8.4317-5.4115-17.621-2.7188-24.916 0.63417-1.8248 1.5753-3.8251 0.69141-5.4082-10.742-19.51-17.155-14.799-16.625-17.277 0.44054-2.4709 13.114 5.9067 23.152-0.58203 7.3231-5.7389 2.999-2.735 8.5859-7.1797 3.1859-2.6056 9.422-4.9729 9.4629-14.635 7.5891-7.6436 15.824-13.032 14.387-25.494-0.33071-2.6092 0.35025-3.8241 2.3906-5.0508 6.7009-3.949 9.6721-4.559 8.6719-17.355 1.519-2.2867 6.1506-10.737 9.1973-10.838-0.40789-8.9546 0.34295-15.051 5.2031-18.023 1.3183-0.88917 2.1906-3.2956 1.8125-5.6133-0.39107-2.2154 0.0692-10.772 7.8711-16.559-1.3945-8.3761-2.4772-7.466 6.0391-17.449 1.7647-2.3549 0.34722-16.243-3.7363-20.094-9.8277-8.3984-32.354-4.3575-55.191 0.32617-33.746 8.2243-111.94 43.47-149.72 108.77z" filter="url(#a)" style="paint-order:markers stroke fill"/></g></g></svg>
