<svg width="128mm" height="128mm" version="1.1" viewBox="0 0 128 128" xmlns="http://www.w3.org/2000/svg"><g transform="translate(0,-169)"><path transform="matrix(.26458 0 0 .26458 0 169)" d="m241.89 120.95c-6.2816 0-11.34 5.0563-11.34 11.338v11.338c0 6.2816 5.0583 11.34 11.34 11.34 6.2816 0 11.338-5.0583 11.338-11.34v-11.338c0-6.2816-5.0563-11.338-11.338-11.338zm-77.504 32.092c-2.8984 0-5.7967 1.1112-8.0176 3.332-4.4417 4.4417-4.4417 11.593 0 16.035l8.0176 8.0176c4.4417 4.4417 11.593 4.4417 16.035 0 4.4417-4.4417 4.4417-11.593 0-16.035l-8.0176-8.0176c-2.2209-2.2209-5.1192-3.332-8.0176-3.332zm155.01 0c-2.8984 0-5.7967 1.1111-8.0176 3.332l-8.0176 8.0176c-4.4417 4.4417-4.4417 11.593 0 16.035 4.4418 4.4417 11.593 4.4417 16.035 0l8.0176-8.0176c4.4417-4.4417 4.4417-11.593 0-16.035-2.2209-2.2209-5.1192-3.332-8.0176-3.332zm-77.502 13.262a75.591 75.591 0 0 0-75.592 75.592 75.591 75.591 0 0 0 75.592 75.59 75.591 75.591 0 0 0 75.59-75.59 75.591 75.591 0 0 0-75.59-75.592zm-109.61 64.252c-6.2816 0-11.338 5.0583-11.338 11.34 0 6.2816 5.0563 11.338 11.338 11.338h11.338c6.2816 0 11.34-5.0563 11.34-11.338 0-6.2816-5.0583-11.34-11.34-11.34zm207.88 0c-6.2816 0-11.34 5.0583-11.34 11.34 0 6.2816 5.0583 11.338 11.34 11.338h11.338c6.2816 0 11.338-5.0563 11.338-11.338 0-6.2816-5.0563-11.34-11.338-11.34zm-167.75 69.477c-2.8984 0-5.7967 1.1092-8.0176 3.3301l-8.0176 8.0176c-4.4417 4.4417-4.4417 11.593 0 16.035 4.4418 4.4417 11.593 4.4417 16.035 0l8.0176-8.0176c4.4417-4.4417 4.4417-11.593 0-16.035-2.2209-2.2209-5.1192-3.3301-8.0176-3.3301zm138.97 0c-2.8984 0-5.7967 1.1092-8.0176 3.3301-4.4417 4.4417-4.4417 11.593 0 16.035l8.0176 8.0176c4.4417 4.4417 11.593 4.4417 16.035 0 4.4417-4.4417 4.4417-11.593 0-16.035l-8.0176-8.0176c-2.2209-2.2209-5.1192-3.3301-8.0176-3.3301zm-69.484 28.791c-6.2816 0-11.34 5.0583-11.34 11.34v11.338c0 6.2816 5.0583 11.338 11.34 11.338 6.2816 0 11.338-5.0563 11.338-11.338v-11.338c0-6.2816-5.0563-11.34-11.338-11.34z" fill="#eed490" stroke-miterlimit="1.5" stroke-width="0" style="paint-order:markers stroke fill"/></g></svg>
